<?xml version="1.0" encoding="UTF-8"?>
<!DOCTYPE svg PUBLIC "-//W3C//DTD SVG 1.1//EN" "http://www.w3.org/Graphics/SVG/1.1/DTD/svg11.dtd">
<!-- Creator: CorelDRAW X8 -->
<svg xmlns="http://www.w3.org/2000/svg" xml:space="preserve" width="244.828mm" height="46.2138mm" version="1.1" style="shape-rendering:geometricPrecision; text-rendering:geometricPrecision; image-rendering:optimizeQuality; fill-rule:evenodd; clip-rule:evenodd"
viewBox="0 0 24483 4621"
 xmlns:xlink="http://www.w3.org/1999/xlink">
 <defs>
  <style type="text/css">
   <![CDATA[
    .fil0 {fill:#07A241;fill-rule:nonzero}
   ]]>
  </style>
 </defs>
 <g id="Слой_x0020_1">
  <metadata id="CorelCorpID_0Corel-Layer"/>
  <path class="fil0" d="M2064 1077l-911 0 0 958 911 0c301,0 556,-168 556,-482 0,-302 -255,-476 -556,-476zm-322 1963l-589 0 0 1501 -1153 0 0 -4469 2238 0c992,0 1555,656 1555,1487 0,778 -476,1193 -892,1340l912 1642 -1320 0 -751 -1501zm4628 -2024c-743,0 -1219,563 -1219,1294 0,723 476,1293 1219,1293 737,0 1213,-570 1213,-1293 0,-731 -476,-1294 -1213,-1294zm0 -1018c1367,0 2386,951 2386,2312 0,1360 -1019,2311 -2386,2311 -1367,0 -2392,-951 -2392,-2311 0,-1361 1025,-2312 2392,-2312zm4964 3571c274,0 442,-160 442,-402 0,-221 -161,-402 -442,-402l-1160 0 0 804 1160 0zm-41 -1782c235,0 396,-154 396,-375 0,-215 -161,-369 -396,-369l-1119 0 0 744 1119 0zm-2271 -1715l2533 0c884,0 1306,576 1306,1139 0,556 -341,931 -764,1025 476,74 851,529 851,1092 0,650 -435,1213 -1313,1213l-2613 0 0 -4469zm6479 3497c275,0 442,-160 442,-402 0,-221 -161,-402 -442,-402l-1159 0 0 804 1159 0zm-40 -1782c234,0 395,-154 395,-375 0,-215 -161,-369 -395,-369l-1119 0 0 744 1119 0zm-2272 -1715l2533 0c884,0 1307,576 1307,1139 0,556 -342,931 -764,1025 476,74 851,529 851,1092 0,650 -436,1213 -1314,1213l-2613 0 0 -4469zm6392 944c-744,0 -1219,563 -1219,1294 0,723 475,1293 1219,1293 737,0 1213,-570 1213,-1293 0,-731 -476,-1294 -1213,-1294zm0 -1018c1367,0 2385,951 2385,2312 0,1360 -1018,2311 -2385,2311 -1367,0 -2392,-951 -2392,-2311 0,-1361 1025,-2312 2392,-2312zm2227 74l0 174 416 0 0 1300 188 0 0 -1300 415 0 0 -174 -1019 0zm2406 0l-429 1072 -429 -1072 -288 0 0 1474 188 0 0 -1220 502 1220 54 0 502 -1220 0 1220 188 0 0 -1474 -288 0z"/>
 </g>
</svg>
